<?xml version="1.0" standalone="no"?><!DOCTYPE svg PUBLIC "-//W3C//DTD SVG 1.1//EN" "http://www.w3.org/Graphics/SVG/1.1/DTD/svg11.dtd"><svg t="1726573784751" class="icon" viewBox="0 0 1028 1024" version="1.1" xmlns="http://www.w3.org/2000/svg" p-id="5312" xmlns:xlink="http://www.w3.org/1999/xlink" width="257" height="256"><path d="M354.133333 981.333333C243.2 981.333333 128 951.466667 25.6 891.733333c-17.066667-8.533333-25.6-29.866667-21.333333-46.933333 4.266667-17.066667 21.333333-34.133333 42.666666-29.866667 72.533333 0 140.8-12.8 209.066667-42.666666-324.266667-200.533333-166.4-567.466667-162.133333-571.733334 4.266667-12.8 21.333333-25.6 34.133333-25.6 17.066667 0 29.866667 4.266667 38.4 17.066667 72.533333 98.133333 183.466667 162.133333 307.2 170.666667 0-64 21.333333-123.733333 76.8-174.933334 42.666667-42.666667 102.4-64 166.4-59.733333 51.2 0 102.4 25.6 140.8 59.733333 34.133333-12.8 64-25.6 93.866667-51.2 8.533333-4.266667 17.066667-8.533333 25.6-8.533333h8.533333c12.8 0 25.6 4.266667 34.133333 17.066667 8.533333 12.8 8.533333 25.6 8.533334 38.4-17.066667 64-46.933333 119.466667-89.6 162.133333v17.066667c0 234.666667-102.4 430.933333-285.866667 533.333333-93.866667 55.466667-196.266667 81.066667-302.933333 81.066667l4.266666 4.266666z m-145.066666-102.4c140.8 34.133333 281.6 17.066667 401.066666-51.2 153.6-89.6 243.2-260.266667 243.2-460.8v-34.133333c0-12.8 4.266667-21.333333 12.8-29.866667 8.533333-8.533333 21.333333-21.333333 29.866667-34.133333l-38.4 12.8c-17.066667 4.266667-34.133333 0-42.666667-12.8-25.6-29.866667-64-46.933333-102.4-51.2-38.4 0-76.8 12.8-102.4 38.4-34.133333 34.133333-55.466667 72.533333-51.2 110.933333v46.933334c0 25.6-17.066667 42.666667-42.666666 42.666666-140.8 0-273.066667-55.466667-366.933334-149.333333-25.6 106.666667-38.4 320 213.333334 430.933333 12.8 4.266667 25.6 21.333333 25.6 34.133334 0 17.066667-4.266667 29.866667-17.066667 38.4-46.933333 34.133333-98.133333 55.466667-153.6 72.533333l-8.533333-4.266667z" fill="#070001" p-id="5313"></path></svg>